<?xml version="1.0" encoding="UTF-8" standalone="no"?>
<svg
   xmlns:dc="http://purl.org/dc/elements/1.1/"
   xmlns:cc="http://creativecommons.org/ns#"
   xmlns:rdf="http://www.w3.org/1999/02/22-rdf-syntax-ns#"
   xmlns:svg="http://www.w3.org/2000/svg"
   xmlns="http://www.w3.org/2000/svg"
   viewBox="0 0 680.20001 735.54669"
   height="735.54669"
   width="680.20001"
   xml:space="preserve"
   id="roedt"
   version="1.1"><metadata
     id="metadata8"><rdf:RDF><cc:Work
         rdf:about=""><dc:format>image/svg+xml</dc:format><dc:type
           rdf:resource="http://purl.org/dc/dcmitype/StillImage" /></cc:Work></rdf:RDF></metadata><defs
     id="defs6" /><g
     transform="matrix(1.3333333,0,0,-1.3333333,0,735.54667)"
     id="g10"><g
       transform="scale(0.1)"
       id="g12"><path
         id="path14"
         style="fill:#E90302;fill-opacity:1;fill-rule:nonzero;stroke:none"
         d="m 4580.02,3717.29 c -218.24,391.79 -433.33,688.92 -654.64,1017.54 587.9,68.13 1117.22,-32.47 1163.67,-114.62 27.83,-48.58 -172.63,-468.32 -509.03,-902.92" /><path
         id="path16"
         style="fill:#E90302;fill-opacity:1;fill-rule:nonzero;stroke:none"
         d="m 2079.64,2918.39 c 371.26,-169.54 781.6,-336.29 1212.19,-503.99 -437.98,-392.43 -1008.72,-769.13 -1111.31,-709.1 -74.31,43.44 -128.88,777.44 -100.88,1213.09" /><path
         id="path18"
         style="fill:#E90302;fill-opacity:1;fill-rule:nonzero;stroke:none"
         d="m 3633.84,2491.88 c 297.66,280.53 599.96,609.26 918.43,945.93 194.23,-403.18 449.71,-1099.34 379.84,-1162.09 -96.91,-86.96 -847.56,46.06 -1298.27,216.16" /><path
         id="path20"
         style="fill:#E90302;fill-opacity:1;fill-rule:nonzero;stroke:none"
         d="m 3647.07,4846.36 c -429.13,-65.34 -1022.06,-199.97 -1295.42,-268.19 127.27,431.02 391.27,918 482.9,937.64 84.26,17.79 470.92,-275.54 812.52,-669.45" /><path
         id="path22"
         style="fill:#E90302;fill-opacity:1;fill-rule:nonzero;stroke:none"
         d="m 2141.7,4364.52 c -86.19,-389.5 -177.13,-889.48 -202.12,-1200.11 -456.96,257.97 -836.05,548.18 -825.71,629.22 10.83,86.2 456.27,403.23 1027.83,570.89" /><path
         id="path24"
         style="fill:#E90302;fill-opacity:1;fill-rule:nonzero;stroke:none"
         d="m 2298.4,4412.68 c -68.97,-256.74 -209.32,-812.23 -216.21,-1322.69 395.12,-216.84 981.36,-443.85 1361.74,-537.66 366.76,291.01 845.97,785.09 1034.53,1036.21 -165.17,340.01 -456.26,849.73 -727.36,1131.71 -433.64,-42.96 -1211.5,-227.43 -1452.7,-307.57" /><path
         id="path26"
         style="fill:#333332;fill-opacity:1;fill-rule:nonzero;stroke:none"
         d="M 726.934,1615.35 H 380.051 V 1050.87 H 732.41 c 190.047,0 267.133,118.38 267.133,289.07 0,181.77 -90.828,275.41 -272.609,275.41 M 743.473,690.148 H 380.051 V 76.1094 H 0 V 1976.03 h 726.934 c 448.836,0 660.886,-181.72 660.886,-630.53 0,-280.85 -104.62,-435.02 -275.37,-542.449 L 1379.51,76.1094 H 963.801 L 743.473,690.148" /><path
         id="path28"
         style="fill:#333332;fill-opacity:1;fill-rule:nonzero;stroke:none"
         d="m 3713.42,425.789 v 699.391 c 0,0 -151.5,24.78 -269.88,24.78 -137.66,0 -223,-99.09 -223,-371.73 0,-278.07 52.23,-385.429 225.74,-391.039 107.42,2.84 267.14,38.598 267.14,38.598 M 4082.37,76.1094 H 3713.42 V 131.18 c 0,0 -190.01,-85.3714 -330.48,-85.3714 -415.7,0 -536.9,250.5824 -536.9,732.4214 0,498.41 195.51,704.96 569.98,704.96 101.86,0 297.4,-35.82 297.4,-35.82 v 556.2 h 368.95 V 76.1094" /><path
         id="path30"
         style="fill:#333332;fill-opacity:1;fill-rule:nonzero;stroke:none"
         d="M 4760.07,1116.98 V 596.539 c 0,-137.68 0,-201 115.65,-201 77.19,0 209.33,5.512 209.33,5.512 l 16.47,-316.6408 c 0,0 -184.47,-41.3516 -280.77,-41.3516 -333.23,0 -429.62,126.6794 -429.62,523.1914 v 550.73 h -162.48 v 333.13 h 162.48 v 385.51 h 368.94 v -385.51 h 338.64 v -333.13 h -338.64" /><path
         id="path32"
         style="fill:#333332;fill-opacity:1;fill-rule:nonzero;stroke:none"
         d="m 2096.26,376.219 c -58.03,0 -103.65,11.32 -139.72,32.871 l 381.06,550.18 c 12.45,-53.899 17.57,-118.75 17.57,-194.79 0,-253.281 -55.12,-388.261 -258.91,-388.261 z m -258.8,388.261 c 0,253.34 55.03,385.48 258.8,385.48 53.4,0 96.37,-9.33 131.03,-27.24 l -374.4,-543.259 c -10.82,52.16 -15.43,113.719 -15.43,185.019 z m 737.81,537.96 119.97,173.26 -158.08,96.59 -108.39,-157.26 c -87.53,43.72 -196.52,68.16 -332.51,68.16 -479.12,0 -633.3,-294.62 -633.3,-718.71 0,-220.339 42.24,-405.941 149.46,-533.921 L 1510.71,83 1673.24,0 l 80.74,116.559 c 89.08,-47.1371 201.28,-73.5004 342.28,-73.5004 479.11,0 633.31,297.3434 633.31,721.4214 0,223.622 -43.6,410.54 -154.3,537.96" /></g></g></svg>